<svg width="432" height="432" viewBox="0 0 24 24" fill="none" xmlns="http://www.w3.org/2000/svg" data-reactroot="">
<path stroke-linejoin="round" stroke-linecap="round" stroke-miterlimit="10" stroke-width="1" stroke="#f16624" fill="none" d="M12 22.5C17.5228 22.5 22 18.0228 22 12.5C22 6.97715 17.5228 2.5 12 2.5C6.47715 2.5 2 6.97715 2 12.5C2 18.0228 6.47715 22.5 12 22.5Z"></path>
<path stroke-linejoin="round" stroke-linecap="round" stroke-miterlimit="10" stroke-width="1" stroke="#f16624" d="M8 8.9C8.2 8.6 8.49999 8.2 8.89999 7.9C9.09999 7.8 10.3 6.8 11.8 7C13.5 7.2 14.9 8.6 15.2 10.1C15.6 12.3 13.1 14.4 11.6 15.6C10.3 16.7 8.20001 18 8.20001 18C10.8 18 13.4 18 16 18"></path>
</svg>
