<svg width="432" height="432" viewBox="0 0 24 24" fill="none" xmlns="http://www.w3.org/2000/svg" data-reactroot="">
<path stroke-linejoin="round" stroke-linecap="round" stroke-miterlimit="10" stroke-width="1" stroke="#f16624" fill="none" d="M12 22.5C17.5228 22.5 22 18.0228 22 12.5C22 6.97715 17.5228 2.5 12 2.5C6.47715 2.5 2 6.97715 2 12.5C2 18.0228 6.47715 22.5 12 22.5Z"></path>
<path stroke-linejoin="round" stroke-linecap="round" stroke-miterlimit="10" stroke-width="1" stroke="#f16624" d="M9.2002 7C9.2002 7 10.9002 7 12.4002 7C15.1002 7 16.3002 10.9 12.0002 12.1"></path>
<path stroke-linejoin="round" stroke-linecap="round" stroke-miterlimit="10" stroke-width="1" stroke="#f16624" d="M8.2998 16.4C8.4998 16.7 8.6998 17 9.0998 17.2C9.9998 17.9 10.9998 18 11.5998 18C12.3998 18 13.4998 18.1 14.3998 17.4C15.1998 16.8 16.0998 15.5 15.6998 14.1C15.2998 12.8 13.7998 11.8 12.0998 12.1"></path>
</svg>
