<svg width="432" height="432" viewBox="0 0 24 24" fill="none" xmlns="http://www.w3.org/2000/svg" data-reactroot="">
<path stroke-linejoin="round" stroke-linecap="round" stroke-width="1" stroke="#f16624" d="M3.0149 12.1496V6C3.0149 6 2.86661 3.70699 3.50576 2.73157C4.14492 1.75615 5.72831 1.75614 6.4509 2.73156C7.1735 3.70698 6.97506 5 6.97506 5"></path>
<path stroke-linecap="round" stroke-width="1" stroke="#f16624" d="M7 20L5 22"></path>
<path stroke-linecap="round" stroke-width="1" stroke="#f16624" d="M17 20L19 22"></path>
<path stroke-linecap="round" stroke-width="1" stroke="#f16624" d="M7 8V8.01"></path>
<path stroke-linejoin="round" stroke-width="1" stroke="#f16624" fill="none" d="M2.02284 12C2.02284 12 7.20522 12.8889 12.1292 12.8889C17.0531 12.8889 21.972 12 21.972 12C21.972 12 22.6288 20 17.5777 20C12.5266 20 11.8172 20 6.61052 20C1.40382 20 2.02284 12 2.02284 12Z" clip-rule="evenodd" fill-rule="evenodd"></path>
</svg>
