<svg width="432" height="432" viewBox="0 0 24 24" fill="none" xmlns="http://www.w3.org/2000/svg" data-reactroot="">
<path stroke-linejoin="round" stroke-linecap="round" stroke-width="1" stroke="#f16624" fill="none" d="M19.9999 20L11.9999 22V11L19.9999 9V20Z"></path>
<path stroke-linejoin="round" stroke-linecap="round" stroke-width="1" stroke="#f16624" fill="none" d="M3.99988 20L11.9999 22V11L3.99988 9V20Z"></path>
<path stroke-linejoin="round" stroke-linecap="round" stroke-width="1" stroke="#f16624" fill="none" d="M11.9999 8C13.6567 8 14.9999 6.65685 14.9999 5C14.9999 3.34315 13.6567 2 11.9999 2C10.343 2 8.99988 3.34315 8.99988 5C8.99988 6.65685 10.343 8 11.9999 8Z"></path>
<path stroke-linejoin="round" stroke-linecap="round" stroke-width="1" stroke="#f16624" d="M20.3799 16.5L18.9099 16.96"></path>
<path stroke-linejoin="round" stroke-linecap="round" stroke-width="1" stroke="#f16624" d="M20.3799 14.8L18.5499 15.38"></path>
<path stroke-linejoin="round" stroke-linecap="round" stroke-width="1" stroke="#f16624" d="M20.3799 13.1L18.3599 13.74"></path>
<path stroke-linejoin="round" stroke-linecap="round" stroke-width="1" stroke="#f16624" d="M20.3799 11.41L18.6499 11.95"></path>
<path stroke-linejoin="round" stroke-linecap="round" stroke-width="1" stroke="#f16624" d="M3.61987 16.5L5.08987 16.96"></path>
<path stroke-linejoin="round" stroke-linecap="round" stroke-width="1" stroke="#f16624" d="M3.61987 14.8L5.44987 15.38"></path>
<path stroke-linejoin="round" stroke-linecap="round" stroke-width="1" stroke="#f16624" d="M3.61987 13.1L5.63987 13.74"></path>
<path stroke-linejoin="round" stroke-linecap="round" stroke-width="1" stroke="#f16624" d="M3.61987 11.41L5.34987 11.95"></path>
</svg>
