<svg width="432" height="432" viewBox="0 0 24 24" fill="none" xmlns="http://www.w3.org/2000/svg" data-reactroot="">
<path stroke-linejoin="round" stroke-linecap="round" stroke-width="1" stroke="#f16624" fill="none" d="M17 3C14.1196 2.99993 12 6 12 6C12 6 10.0808 3 7 3C4.09916 3 2.0001 5.00004 2 7.99998C2.0001 10.9999 3.0001 13 6 16C8.0001 18 12 21 12 21C12 21 16.0001 18 18 16C21.0001 13 22.0001 11 22.0001 8C22.0001 5.00004 19.9008 3.00007 17 3Z"></path>
<path stroke-linejoin="round" stroke-linecap="round" stroke-width="1" stroke="#f16624" d="M2.88281 12.0156L5.99989 12L7.99995 8L9.99995 14L11.9999 11L13.9999 14L15.9999 8L17.9999 12L21.1171 12.0156"></path>
</svg>
