<svg xmlns="http://www.w3.org/2000/svg" viewBox="0 0 1592.16 383.04"><defs><style>.a{fill:#fff;}.b{fill:#f16624;}</style></defs><polygon class="a" points="735.72 233.28 740.83 233.28 740.83 265.71 735.72 265.71 735.72 233.28 735.72 233.28"/><path class="a" d="M776.11,266.24,757,241.78a11.36,11.36,0,0,1-1.58-2.5h-.25c0,.68.05,2,.05,3.27v23.16H751V233.43l5.46-.39.4.24,16.06,21.14a16.35,16.35,0,0,1,2.24,3.41h.2c0-.86-.06-2.5-.06-3.65v-20.9h4.27v33Z"/><polygon class="a" points="802.56 236.98 802.56 265.71 797.45 265.71 797.45 236.98 785.25 236.98 785.25 233.28 814.71 233.28 814.71 236.98 802.56 236.98 802.56 236.98"/><path class="a" d="M840.46,265.71h-20V233.28h19.45v3.65H825.53v9.61h12.8v3.7h-12.8v10.29c0,1.23.65,1.53,1.54,1.53H841l-.55,3.65Z"/><path class="a" d="M868.26,266l-.35-.23L854.28,248.9H856c4.26,0,8.33-1.68,8.33-6.44,0-5-3.67-6.06-8.48-6.06h-3v29.32h-5.1V233.28h9.92c5.55,0,12.15,1.2,12.15,8.31,0,4.95-3.82,7.93-8,9l12.64,15-6.2.39Z"/><path class="a" d="M905.32,266.24l-19.1-24.46a11.75,11.75,0,0,1-1.58-2.5h-.25c0,.68.05,2,.05,3.27v23.16h-4.27V233.43l5.46-.39.4.24,16.07,21.14a16.31,16.31,0,0,1,2.23,3.41h.2c0-.86,0-2.5,0-3.65v-20.9h4.27v33Z"/><path class="a" d="M940.44,266l-.4-.23-3.82-10.16H922.78l-4.22,10.16-.4.23-3.91-.38,14.23-33.15h3.87l13.14,33.15-5,.38ZM931.06,242a15.37,15.37,0,0,1-1.19-4.13h-.2a17.38,17.38,0,0,1-1.39,4.22L924,252.35h11L931.06,242Z"/><polygon class="a" points="960.36 236.98 960.36 265.71 955.25 265.71 955.25 236.98 943.05 236.98 943.05 233.28 972.51 233.28 972.51 236.98 960.36 236.98 960.36 236.98"/><polygon class="a" points="978.33 233.28 983.43 233.28 983.43 265.71 978.33 265.71 978.33 233.28 978.33 233.28"/><path class="a" d="M1007.11,266.48c-9.82,0-16.56-5.81-16.56-17,0-10.67,8.23-17.15,16.56-17.15,8.93,0,16.57,5.24,16.57,17.15a16.51,16.51,0,0,1-16.57,17m-.05-30.6c-5.16,0-11,2.88-11,13.64,0,10.28,5.41,13.45,11,13.45s11-3.17,11-13.45c0-10.43-5.55-13.64-11.06-13.64"/><path class="a" d="M1056,266.24l-19.09-24.46a11.4,11.4,0,0,1-1.59-2.5H1035c0,.68,0,2,0,3.27v23.16h-4.26V233.43l5.45-.39.4.24,16.07,21.14a16.35,16.35,0,0,1,2.24,3.41h.19c0-.86-.05-2.5-.05-3.65v-20.9h4.27v33Z"/><path class="a" d="M1091.06,266l-.39-.23-3.82-10.16h-13.44l-4.22,10.16-.4.23-3.91-.38,14.23-33.15H1083l13.15,33.15-5.07.38ZM1081.69,242a15.37,15.37,0,0,1-1.19-4.13h-.2a17,17,0,0,1-1.39,4.22l-4.26,10.23h11L1081.69,242Z"/><path class="a" d="M1121.66,265.71h-20V233.28h5.11v27.25c0,1.23.64,1.53,1.53,1.53h13.94l-.54,3.65Z"/><path class="a" d="M1161.12,266l-.35-.23-13.64-16.82h1.74c4.27,0,8.33-1.68,8.33-6.44,0-5-3.67-6.06-8.47-6.06h-3v29.32h-5.1V233.28h9.92c5.55,0,12.15,1.2,12.15,8.31,0,4.95-3.82,7.93-8,9l12.65,15-6.2.39Z"/><path class="a" d="M1193.07,265.71h-20V233.28h19.44v3.65h-14.33v9.61h12.79v3.7h-12.79v10.29c0,1.23.64,1.53,1.54,1.53h13.94l-.55,3.65Z"/><path class="a" d="M1223.31,266l-.4-.23-3.82-10.16h-13.44l-4.22,10.16-.39.23-3.92-.38,14.23-33.15h3.87l13.15,33.15-5.06.38ZM1213.93,242a15.74,15.74,0,0,1-1.19-4.13h-.2a17.79,17.79,0,0,1-1.38,4.22l-4.27,10.23h11L1213.93,242Z"/><path class="a" d="M1253.9,265.71h-20V233.28H1239v27.25c0,1.23.65,1.53,1.54,1.53h13.94l-.55,3.65Z"/><path class="a" d="M1292.92,265.71h-20V233.28h19.45v3.65H1278v9.61h12.8v3.7H1278v10.29c0,1.23.65,1.53,1.55,1.53h13.93l-.54,3.65Z"/><path class="a" d="M1307.41,266.38a19.22,19.22,0,0,1-8.78-2l1.49-3.7a15.66,15.66,0,0,0,7.58,2.07c3.47,0,7.5-1.5,7.5-5.34,0-3.32-2.94-4.9-5.71-6.06l-4.07-1.73c-3.37-1.44-6.39-3.74-6.39-8,0-5.77,5.66-9.18,11.45-9.18a16.94,16.94,0,0,1,8,1.93l-1.74,3.89a12.84,12.84,0,0,0-6.85-2.17c-3.86,0-6.2,1.64-6.2,4.23s2.24,3.84,5.27,5.19l4.41,1.92c3.32,1.45,6.64,4.23,6.64,8.46,0,6.58-6.1,10.47-12.64,10.47"/><polygon class="a" points="1340.84 236.98 1340.84 265.71 1335.73 265.71 1335.73 236.98 1323.52 236.98 1323.52 233.28 1352.99 233.28 1352.99 236.98 1340.84 236.98 1340.84 236.98"/><path class="a" d="M1376.3,266l-.4-.23-3.83-10.16h-13.43l-4.22,10.16-.39.23-3.92-.38,14.23-33.15h3.87l13.14,33.15-5,.38ZM1366.92,242a15.37,15.37,0,0,1-1.19-4.13h-.2a17,17,0,0,1-1.39,4.22l-4.26,10.23h11L1366.92,242Z"/><polygon class="a" points="1396.22 236.98 1396.22 265.71 1391.11 265.71 1391.11 236.98 1378.91 236.98 1378.91 233.28 1408.37 233.28 1408.37 236.98 1396.22 236.98 1396.22 236.98"/><path class="a" d="M1434.12,265.71h-20V233.28h19.44v3.65h-14.34v9.61H1432v3.7h-12.8v10.29c0,1.23.65,1.53,1.54,1.53h13.94l-.55,3.65Z"/><path class="a" d="M765.55,146.19c-5.37-13.32-19.35-22-37.08-22-27.17,0-44.09,17.33-44.09,41.38,0,25.94,21.15,45,45.87,45,12.85,0,28.63-3.86,39.69-21.19H773a92.37,92.37,0,0,1-10.41,20.91c-10.42-1.29-17.58,3.86-36.77,3.86-33,0-56.76-19.18-56.76-45.68,0-27.79,24.39-47.85,58.39-47.85,20.49,0,29.29,5.73,34.32,5.73,1.8,0,2.6-.43,2.93-.86h2.44l1.46,20.77Zm41.93,23.06v27.22c0,9.32,2.12,12.61,13,12.61H821v2.71H780.15v-2.71h1c9.6,0,12.85-2.3,12.85-10.46v-63c0-7.46-2.77-9.61-11.71-10.18V122.7H821v2.72c-11.55,0-13.51,2.72-13.51,13.75v24.92h63.77V135.88c0-7.59-2.77-10.46-12.86-10.46H855.3V122.7h41.81v2.72c-9.76.29-12.37,2.87-12.37,11.75v59.44c0,10.17,3.26,12.47,13,12.47h1.62v2.71h-46v-2.71h5c10.59,0,12.86-3.29,12.86-10.76V169.25ZM936.64,173V198c0,8,2.76,11,13,11H955v2.71H910v-2.71h2.28c8.46,0,10.9-1.58,10.9-8.32V133c0-5.31-1.95-7.6-7.65-7.6h-8.13V122.7c4.55-.14,12.53-.57,20.5-.86s15.78-.43,20.16-.43c34,0,41.81,14.33,41.81,25.36,0,16.76-15.13,22.91-19.19,24.2L990,196.75a113,113,0,0,0,9,9.89c2.27,2,4.39,3.15,9.1,4.44v2.58h-2.1c-15.79,0-25.22-7-42-31.37a55.93,55.93,0,0,0-6.84-8.45s-11.71,1-20.49-.86m0-2.72a48.16,48.16,0,0,0,8.78,1.13c17.73,0,29.12-10.59,29.12-25,0-11.17-5-22.2-26.68-22.2a75.07,75.07,0,0,0-11.22.57v45.55Zm119.72,41.53h-39.53v-2.71c10.09-.43,12.2-2.72,12.2-12.33v-61c0-7.74-3.09-9.89-12.2-10.32V122.7h39.53v2.72c-10.25,0-13.83,2-13.83,11.61v60.73c0,8.45,2.6,11.32,13.83,11.32v2.71ZM1073.89,190c3.41,12.75,14.79,20.2,27.48,20.2,10.9,0,22.45-5.58,22.45-16.9,0-20.63-52.21-26.93-52.21-52,0-11.89,12.36-20.77,29-20.77,13.65,0,16.42,3.59,22.12,3.59a3.24,3.24,0,0,0,2.92-1.44h2.61l2.76,18.19h-2.76A28.69,28.69,0,0,0,1102,124c-10.73,0-18.21,5.44-18.21,13.47,0,20.33,52.21,25.78,52.21,52.13,0,14-14.15,24.49-33.18,24.49-8.95,0-20.33-3.86-22.61-3.86a4.08,4.08,0,0,0-3.25,1.57h-2.77L1070.8,190Zm124.75,8.6c0,7.74,2.93,10.46,12.86,10.46h6v2.71h-51.24v-2.71h6c9.93,0,12.86-2.72,12.86-10.46V127.86h-28.3c-6.51,0-9.44,3.3-11.88,15.9H1142l2.6-23.21h3.09a2.3,2.3,0,0,0,1.78,1.73,12.25,12.25,0,0,0,3.27.42H1231c2.28,0,4.71-.42,5-2.15h3.09l2.61,23.21h-2.94c-2.43-12.6-5.37-15.9-11.87-15.9h-28.31v70.76Zm95.13,13.17h-39.53v-2.71c10.09-.43,12.2-2.72,12.2-12.33v-61c0-7.74-3.09-9.89-12.2-10.32V122.7h39.53v2.72c-10.25,0-13.83,2-13.83,11.61v60.73c0,8.45,2.6,11.32,13.83,11.32v2.71Zm82.76-32.22h-3.1c-1.29-10.18-4.39-11.32-11-11.32h-27.5v30.51c0,6.59,2.77,7.88,8.79,7.88h25c11.39,0,14.8-3.87,18.87-16.19h2.93l-2.6,21.34h-86.37v-2.71h4.55c13,0,15.29-3.15,15.29-11.75V136.88c0-8-2.11-11.46-13-11.46h-3.58V122.7h78.08l1.29,19.91h-2.92c-2.11-12.17-6.18-14.75-12-14.75h-34.32v35.23H1364c5.85,0,8.62-2.42,9.43-10.74h3.1v27.22Zm25-31.95c8.14-4.15,12.53-9.17,12.53-14.32,0-1.71-.64-3-2.27-3-1.47,0-2.12.42-3.9.42-4.24,0-7.33-2.72-7.33-6.44,0-3.87,3.91-7,8.78-7,6.52,0,11.39,5,11.39,11.89,0,8.88-7.31,17.48-18,21l-1.15-2.58Zm32.35,42.4c3.42,12.75,14.79,20.2,27.49,20.2,10.88,0,22.45-5.58,22.45-16.9,0-20.63-52.23-26.93-52.23-52,0-11.89,12.36-20.77,29-20.77,13.66,0,16.42,3.59,22.12,3.59a3.27,3.27,0,0,0,2.94-1.44h2.59l2.77,18.19h-2.77a28.66,28.66,0,0,0-26.19-16.9c-10.73,0-18.21,5.44-18.21,13.47,0,20.33,52.22,25.78,52.22,52.13,0,14-14.16,24.49-33.19,24.49-8.95,0-20.34-3.86-22.61-3.86a4.1,4.1,0,0,0-3.26,1.57h-2.77L1430.82,190Z"/><polygon class="a" points="735.72 233.28 740.83 233.28 740.83 265.71 735.72 265.71 735.72 233.28 735.72 233.28"/><path class="a" d="M776.11,266.24,757,241.78a11.36,11.36,0,0,1-1.58-2.5h-.25c0,.68.05,2,.05,3.27v23.16H751V233.43l5.46-.39.4.24,16.06,21.14a16.35,16.35,0,0,1,2.24,3.41h.2c0-.86-.06-2.5-.06-3.65v-20.9h4.27v33Z"/><polygon class="a" points="802.56 236.98 802.56 265.71 797.45 265.71 797.45 236.98 785.25 236.98 785.25 233.28 814.71 233.28 814.71 236.98 802.56 236.98 802.56 236.98"/><path class="a" d="M840.46,265.71h-20V233.28h19.45v3.65H825.53v9.61h12.8v3.7h-12.8v10.29c0,1.23.65,1.53,1.54,1.53H841l-.55,3.65Z"/><path class="a" d="M868.26,266l-.35-.23L854.28,248.9H856c4.26,0,8.33-1.68,8.33-6.44,0-5-3.67-6.06-8.48-6.06h-3v29.32h-5.1V233.28h9.92c5.55,0,12.15,1.2,12.15,8.31,0,4.95-3.82,7.93-8,9l12.64,15-6.2.39Z"/><path class="a" d="M905.32,266.24l-19.1-24.46a11.75,11.75,0,0,1-1.58-2.5h-.25c0,.68.05,2,.05,3.27v23.16h-4.27V233.43l5.46-.39.4.24,16.07,21.14a16.31,16.31,0,0,1,2.23,3.41h.2c0-.86,0-2.5,0-3.65v-20.9h4.27v33Z"/><path class="a" d="M940.44,266l-.4-.23-3.82-10.16H922.78l-4.22,10.16-.4.23-3.91-.38,14.23-33.15h3.87l13.14,33.15-5,.38ZM931.06,242a15.37,15.37,0,0,1-1.19-4.13h-.2a17.38,17.38,0,0,1-1.39,4.22L924,252.35h11L931.06,242Z"/><polygon class="a" points="960.36 236.98 960.36 265.71 955.25 265.71 955.25 236.98 943.05 236.98 943.05 233.28 972.51 233.28 972.51 236.98 960.36 236.98 960.36 236.98"/><polygon class="a" points="978.33 233.28 983.43 233.28 983.43 265.71 978.33 265.71 978.33 233.28 978.33 233.28"/><path class="a" d="M1007.11,266.48c-9.82,0-16.56-5.81-16.56-17,0-10.67,8.23-17.15,16.56-17.15,8.93,0,16.57,5.24,16.57,17.15a16.51,16.51,0,0,1-16.57,17m-.05-30.6c-5.16,0-11,2.88-11,13.64,0,10.28,5.41,13.45,11,13.45s11-3.17,11-13.45c0-10.43-5.55-13.64-11.06-13.64"/><path class="a" d="M1056,266.24l-19.09-24.46a11.4,11.4,0,0,1-1.59-2.5H1035c0,.68,0,2,0,3.27v23.16h-4.26V233.43l5.45-.39.4.24,16.07,21.14a16.35,16.35,0,0,1,2.24,3.41h.19c0-.86-.05-2.5-.05-3.65v-20.9h4.27v33Z"/><path class="a" d="M1091.06,266l-.39-.23-3.82-10.16h-13.44l-4.22,10.16-.4.23-3.91-.38,14.23-33.15H1083l13.15,33.15-5.07.38ZM1081.69,242a15.37,15.37,0,0,1-1.19-4.13h-.2a17,17,0,0,1-1.39,4.22l-4.26,10.23h11L1081.69,242Z"/><path class="a" d="M1121.66,265.71h-20V233.28h5.11v27.25c0,1.23.64,1.53,1.53,1.53h13.94l-.54,3.65Z"/><path class="a" d="M1161.12,266l-.35-.23-13.64-16.82h1.74c4.27,0,8.33-1.68,8.33-6.44,0-5-3.67-6.06-8.47-6.06h-3v29.32h-5.1V233.28h9.92c5.55,0,12.15,1.2,12.15,8.31,0,4.95-3.82,7.93-8,9l12.65,15-6.2.39Z"/><path class="a" d="M1193.07,265.71h-20V233.28h19.44v3.65h-14.33v9.61h12.79v3.7h-12.79v10.29c0,1.23.64,1.53,1.54,1.53h13.94l-.55,3.65Z"/><path class="a" d="M1223.31,266l-.4-.23-3.82-10.16h-13.44l-4.22,10.16-.39.23-3.92-.38,14.23-33.15h3.87l13.15,33.15-5.06.38ZM1213.93,242a15.74,15.74,0,0,1-1.19-4.13h-.2a17.79,17.79,0,0,1-1.38,4.22l-4.27,10.23h11L1213.93,242Z"/><path class="a" d="M1253.9,265.71h-20V233.28H1239v27.25c0,1.23.65,1.53,1.54,1.53h13.94l-.55,3.65Z"/><path class="a" d="M1292.92,265.71h-20V233.28h19.45v3.65H1278v9.61h12.8v3.7H1278v10.29c0,1.23.65,1.53,1.55,1.53h13.93l-.54,3.65Z"/><path class="a" d="M1307.41,266.38a19.22,19.22,0,0,1-8.78-2l1.49-3.7a15.66,15.66,0,0,0,7.58,2.07c3.47,0,7.5-1.5,7.5-5.34,0-3.32-2.94-4.9-5.71-6.06l-4.07-1.73c-3.37-1.44-6.39-3.74-6.39-8,0-5.77,5.66-9.18,11.45-9.18a16.94,16.94,0,0,1,8,1.93l-1.74,3.89a12.84,12.84,0,0,0-6.85-2.17c-3.86,0-6.2,1.64-6.2,4.23s2.24,3.84,5.27,5.19l4.41,1.92c3.32,1.45,6.64,4.23,6.64,8.46,0,6.58-6.1,10.47-12.64,10.47"/><polygon class="a" points="1340.84 236.98 1340.84 265.71 1335.73 265.71 1335.73 236.98 1323.52 236.98 1323.52 233.28 1352.99 233.28 1352.99 236.98 1340.84 236.98 1340.84 236.98"/><path class="a" d="M1376.3,266l-.4-.23-3.83-10.16h-13.43l-4.22,10.16-.39.23-3.92-.38,14.23-33.15h3.87l13.14,33.15-5,.38ZM1366.92,242a15.37,15.37,0,0,1-1.19-4.13h-.2a17,17,0,0,1-1.39,4.22l-4.26,10.23h11L1366.92,242Z"/><polygon class="a" points="1396.22 236.98 1396.22 265.71 1391.11 265.71 1391.11 236.98 1378.91 236.98 1378.91 233.28 1408.37 233.28 1408.37 236.98 1396.22 236.98 1396.22 236.98"/><path class="a" d="M520.23,95.19c0,.49,0,1,0,1.47v145c0,1.71.21,1.41-1.51,1.53a3.21,3.21,0,0,1-2.87-1.3q-24.75-28.08-49.59-56.09L418.8,132.2c-.15-.17-.31-.32-.51-.53a2,2,0,0,0-.18,1.34q0,54.21,0,108.42c0,1.74,0,1.74-1.72,1.74-3.62,0-7.25,0-10.87,0-1,0-1.3-.27-1.3-1.3q0-60.78,0-121.56,0-12.57,0-25.15h3.4a7.26,7.26,0,0,0,.46.63l9.13,10.52,46.2,53.15q19.3,22.23,38.62,44.44l4,4.61a2.7,2.7,0,0,0,.18-1.46q0-55.28,0-110.54c0-.45-.05-.9-.08-1.35Z"/><path class="a" d="M300.8,225.9c-1.92,0-3.85,0-5.77,0-.75,0-1.07-.15-1.06-1,0-3.93,0-7.85,0-11.77,0-.63.17-.85.83-.85q6,0,12,0c.67,0,.83.24.83.86,0,4,0,7.92,0,11.88,0,.74-.3.87-.94.86-2,0-3.92,0-5.89,0"/><path class="a" d="M325.55,237c0,2,0,3.92,0,5.88,0,.67-.15.93-.87.92q-5.94,0-11.88,0c-.61,0-.85-.14-.85-.81q0-6,0-12c0-.68.26-.81.86-.8q5.94,0,11.88,0c.74,0,.87.29.86.93,0,2,0,3.92,0,5.88"/><path class="a" d="M325.55,219.06c0,2,0,4,0,6,0,.64-.19.86-.84.85-4,0-7.93,0-11.89,0-.74,0-.87-.28-.87-.93q0-5.9,0-11.78c0-.69.18-.9.89-.9,3.92,0,7.85,0,11.78,0,.77,0,.94.26.93,1,0,1.92,0,3.85,0,5.77"/><path class="a" d="M307.62,236.93c0,2,0,4,0,6,0,.69-.19.9-.89.9-3.93,0-7.86,0-11.78,0-.78,0-.94-.27-.93-1q0-5.84,0-11.67c0-.74.2-1,1-1,3.89,0,7.78,0,11.67,0,.83,0,1,.28,1,1,0,1.89,0,3.78,0,5.66"/><path class="b" d="M312,95.19l68.33,148h-3.18c-3.59,0-7.18-.05-10.76,0a1.64,1.64,0,0,1-1.75-1.14q-27-56.94-54-113.86c-.16-.34-.33-.67-.57-1.14l-4.64,9.65q-25.29,52.72-50.57,105.47a1.51,1.51,0,0,1-1.6,1c-4.94,0-9.88,0-14.85,0a3.45,3.45,0,0,1,.53-1.42Q273.14,169,307.33,96.33c.17-.36.5-.68.36-1.14Z"/><path class="a" d="M355.66,167.73c-2-4.26-3.91-8.27-5.8-12.29l-8.51-18.12a3.65,3.65,0,0,1-.39-1.62c0-3.7,0-7.4,0-11.1,0-.81.14-1.11,1-1.1,4.26,0,8.53,0,12.8,0,.69,0,1,.12,1,.91q0,21.42,0,42.82c0,.08,0,.15-.09.49"/><path class="a" d="M214.34,95.19q0,62.54,0,125.06c0,7.29,0,14.57,0,21.86,0,.82-.19,1-1.05,1.11a4,4,0,0,1-3.56-1.58q-22.93-26.05-46-52l-32.28-36.46-18.23-20.62c-.24-.27-.51-.51-1-.95V241.73c0,1.44,0,1.44-1.46,1.44-3.73,0-7.47,0-11.21,0-1.07,0-1.29-.31-1.29-1.32q0-50.46,0-100.93V96.54c0-.45,0-.9-.07-1.35h3.4q2.4,2.79,4.81,5.57l40.06,46.07L199.72,208c.19.23.31.63.78.54V96.66c0-.49,0-1,0-1.47Z"/><path class="a" d="M438.13,237.37a2.37,2.37,0,0,0,.28-.61c.15-1,.57-1.18,1.55-.91,1.83.51,1.86.44,1.18,2.23s-.74,1.94,1,3.06c.68.43.61.71.17,1.28-1.51,1.94-1.5,2-3.4.4-.5-.42-.8-.52-1.4-.09a7.14,7.14,0,0,1-7.21.68c-3.65-1.5-4-6-.66-8.51,1.3-1,1.3-1,.49-2.44-1.47-2.65-.36-5.06,2.64-5.7a6.38,6.38,0,0,1,3.36.15,3.65,3.65,0,0,1,1.35,6.32c-.51.47-1.53.69-1.47,1.38s.74,1.18,1.19,1.74c.27.35.45.79.92,1m-4.93,4a4.27,4.27,0,0,0,2.31-.81c.52-.31.54-.62.15-1.07-.8-.95-1.57-1.93-2.36-2.89-.18-.22-.31-.5-.72-.36a3.31,3.31,0,0,0-1.84,3.24,2.34,2.34,0,0,0,2.46,1.89m2.74-10.94a1.56,1.56,0,0,0-1.67-1.48c-.83,0-1.5.34-1.61,1.26-.07.59,1.15,2.21,1.59,2.2s1.68-1.36,1.69-2"/><path class="a" d="M456.32,234.86a9.87,9.87,0,0,0,.44,3.46,4.1,4.1,0,0,0,4,3.1,3.73,3.73,0,0,0,4-2.85c.34-1.11.83-1.1,1.66-.74l.32.11c2.47.77,2.48.81,1.17,3.13-2.6,4.59-9.64,5.05-13.33.87-3.29-3.71-2.93-11.26.7-14.64a9.21,9.21,0,0,1,10.54-.94,6.88,6.88,0,0,1,2.79,3.6c.2.54.17.85-.47.93a4.36,4.36,0,0,0-.88.22c-1.29.4-2.16.5-3.05-1.07-1.44-2.58-5.74-2-7.12.75a8.35,8.35,0,0,0-.74,4.07"/><path class="a" d="M487,244.74c-5.57.11-9.62-3.65-9.24-10.56a9.44,9.44,0,0,1,2.61-6.56c2.91-2.83,6.41-3,10-1.9s5.14,3.74,5.65,7.24a13.35,13.35,0,0,1-.11,4.72c-.89,4.46-4.2,7.06-8.91,7.06m5.16-9.87a8,8,0,0,0-.56-3.43,5.08,5.08,0,0,0-9.22-.11,9.33,9.33,0,0,0,0,7.06,5,5,0,0,0,9.35-.29,8.42,8.42,0,0,0,.47-3.23"/><path class="a" d="M98.33,274.86c0-3.32,0-6.64,0-9.95,0-.79.11-1.14,1-1.11,3.16.1,6.33.09,9.49.11,4.14,0,7.22,3.24,6.37,8.29a6.25,6.25,0,0,1-6.23,5.36c-1.73.09-3.47.1-5.2.07-.75,0-1,.23-1,1,0,2.07,0,4.15,0,6.22,0,1-.31,1.31-1.27,1.22a12.19,12.19,0,0,0-2.26,0c-.78.07-1-.18-1-1,0-3.39,0-6.79,0-10.18m4.52-4.38c0,1,0,1.84,0,2.67,0,.6.2.78.78.78a34.18,34.18,0,0,0,4.41-.2,3,3,0,0,0,2.67-2.9,2.91,2.91,0,0,0-2.48-3,9.49,9.49,0,0,0-2.25-.17c-1,0-2.29-.43-2.94.2s-.1,1.86-.18,2.65"/><path class="a" d="M156.69,276.29c3.6,2.45,5,6.3,7.49,9.72H159.1c-.47,0-.61-.38-.82-.68-1.42-2.09-2.87-4.16-4.24-6.28a4.58,4.58,0,0,0-4.37-2.27c-.76,0-1,.2-1,1,.05,2.38,0,4.76,0,7.13,0,.94-.29,1.17-1.15,1.1a18.81,18.81,0,0,0-2.49,0c-.69,0-.91-.2-.9-.9,0-2.15,0-4.3,0-6.45,0-4.6,0-9.21,0-13.81,0-.6,0-1.09.84-1.07,3.88.11,7.77-.14,11.65.19,2.92.25,4.82,1.76,5.5,4.39a6.11,6.11,0,0,1-2.42,6.78,10.55,10.55,0,0,1-3,1.13m-4.27-8.67c-1.13,0-2.08,0-3,0-.49,0-.77.08-.76.67,0,1.44,0,2.87,0,4.3,0,.48.15.68.65.67a47.68,47.68,0,0,0,6.21-.2,2.71,2.71,0,0,0,.32-5.23,15.64,15.64,0,0,0-3.41-.2"/><path class="a" d="M198.94,286.43c-.17-.29-.47-.2-.71-.26a9.86,9.86,0,0,1-7.89-8.55,16.65,16.65,0,0,1,.46-7.16,9.61,9.61,0,0,1,8.95-6.93,14.44,14.44,0,0,1,4.49.34A10,10,0,0,1,211.6,273a17,17,0,0,1-.39,6,9.62,9.62,0,0,1-7.49,7.2c-.25.06-.55,0-.71.26ZM194.84,275a9.2,9.2,0,0,0,.58,3.73,5.83,5.83,0,0,0,5.93,3.84,5.75,5.75,0,0,0,5.28-4.39,12.4,12.4,0,0,0,.17-5.93,5.6,5.6,0,0,0-6-4.89c-3,0-5.15,1.87-5.78,5a12.69,12.69,0,0,0-.21,2.63"/><path class="a" d="M241,274.94c0-3.32,0-6.64,0-10,0-1,.3-1.21,1.22-1.18,3.16.1,6.33.07,9.5.12,3.49.06,6.69,2.59,6.33,7.44a6.36,6.36,0,0,1-6.4,6.2c-1.62.09-3.24.16-4.86.12-.92,0-1.26.21-1.23,1.19.07,2,0,4.07,0,6.11,0,.88-.27,1.12-1.1,1a17.24,17.24,0,0,0-2.49,0c-.8.07-1-.23-1-1,0-3.36,0-6.72,0-10.08m4.56-4.42c0,1,0,1.76,0,2.55,0,.63.18.86.83.86a36,36,0,0,0,4.28-.2,2.9,2.9,0,0,0,2.7-2.82,2.81,2.81,0,0,0-2.49-3.09,12.86,12.86,0,0,0-2.24-.18c-1,0-2.22-.42-2.84.15s-.12,1.92-.24,2.73"/><path class="a" d="M286.94,275c0-3.33,0-6.65,0-10,0-.82.12-1.21,1.1-1.2,4.79.06,9.59,0,14.38,0,.79,0,1,.22,1,1,0,2.81,0,2.81-2.81,2.81s-5.44,0-8.16,0c-.72,0-1,.18-1,.94a26,26,0,0,1,0,3.06c0,.77.27,1,1,.95,3,0,6,0,8.95,0,1,0,1.25.32,1.23,1.28-.06,2.45,0,2.46-2.51,2.46s-5.06,0-7.59,0c-.87,0-1.11.27-1.07,1.1.06,1.32.05,2.64,0,4,0,.79.22,1,1,1,3.39,0,6.79,0,10.19,0,1,0,1.18.29,1.16,1.2-.05,2.53,0,2.53-2.54,2.53-4.41,0-8.83,0-13.25,0-.87,0-1.17-.2-1.16-1.12.06-3.32,0-6.64,0-10"/><path class="a" d="M345.12,276.29a31.53,31.53,0,0,1,7.21,9.72h-5c-.46,0-.58-.45-.78-.74-1.5-2.17-3-4.33-4.46-6.55-1.07-1.65-2.63-2-4.42-1.91-.69,0-.66.45-.66.92,0,2.42,0,4.83,0,7.24,0,.87-.26,1.13-1.09,1.07a22.43,22.43,0,0,0-2.72,0c-.59,0-.79-.2-.79-.78q0-10.31,0-20.61c0-.65.25-.84.88-.83,3.84.09,7.69-.14,11.53.18,3.41.28,5.46,2.21,5.8,5.52a5.89,5.89,0,0,1-4.59,6.49l-1,.29m-4.6-8.65v0c-.95,0-1.89,0-2.83,0-.55,0-.72.19-.71.72,0,1.36,0,2.72,0,4.07,0,.63.2.88.85.86,1.84-.06,3.69.05,5.53-.16S346,272,346,270.27s-1-2.53-2.77-2.62c-.9,0-1.81,0-2.71,0"/><path class="a" d="M389.52,276.79c0,2.68-.06,5.36,0,8,0,1.05-.31,1.31-1.27,1.22a12.19,12.19,0,0,0-2.26,0c-.8.07-1-.23-1-1,0-5.39,0-10.78.05-16.17,0-1-.25-1.3-1.25-1.24-1.5.09-3,0-4.52,0-.63,0-.84-.16-.86-.82-.09-3-.11-3,2.87-3,4.6,0,9.2,0,13.8,0,.79,0,1,.21,1,1,0,2.81,0,2.78-2.81,2.82-1.23,0-2.82-.54-3.58.24s-.18,2.29-.2,3.49c0,1.81,0,3.62,0,5.43"/><path class="a" d="M428.85,275c0,3.36,0,6.71,0,10.07,0,.8-.23,1.07-1,1a24.5,24.5,0,0,0-2.71,0c-.57,0-.79-.16-.79-.77q0-10.35,0-20.71c0-.58.18-.81.78-.79a20.51,20.51,0,0,0,2.6,0c.87-.06,1.17.18,1.15,1.12-.05,3.35,0,6.71,0,10.07"/><path class="a" d="M458.44,274.86c0-3.36,0-6.72,0-10.08,0-.72.17-1,.94-1q7.31,0,14.61,0c.72,0,1,.17,1,.94,0,2.87.05,2.87-2.86,2.87-2.71,0-5.43,0-8.15,0-.81,0-1.05.25-1,1a16.34,16.34,0,0,1,0,2.71c-.09,1,.35,1.18,1.24,1.17,3-.05,6,0,8.95,0,.77,0,1,.2,1,1,0,2.77,0,2.77-2.76,2.77-2.49,0-5,0-7.47,0-.73,0-1,.18-1,.95.05,1.39.05,2.79,0,4.18,0,.77.26,1,1,.95,3.44,0,6.87,0,10.31,0,.83,0,1.17.15,1.16,1.1-.06,2.63,0,2.63-2.67,2.63-4.34,0-8.68,0-13,0-1.09,0-1.3-.34-1.29-1.34.06-3.28,0-6.57,0-9.85"/><path class="a" d="M510.26,286.43c-.38-.39-.91-.3-1.36-.43-3.15-.9-4.77-3.1-5.43-6.18-.15-.72,0-1.18.85-1.11a5,5,0,0,0,1-.12c2-.28,2-.28,2.91,1.57,1.24,2.63,5.74,3.39,7.79,1.31a2.28,2.28,0,0,0-.72-3.94,30.88,30.88,0,0,0-4.44-1.28,14,14,0,0,1-3.68-1.41,5.67,5.67,0,0,1-3-5.75,5.53,5.53,0,0,1,3.84-4.88,12.15,12.15,0,0,1,8.84.08,6,6,0,0,1,3.81,5c.12.68,0,1.1-.84,1a8,8,0,0,0-1.47,0c-1.24.13-2.34.16-2.65-1.47a2,2,0,0,0-1.46-1.32,6.14,6.14,0,0,0-4.63.19,1.72,1.72,0,0,0-1.17,1.53,1.78,1.78,0,0,0,1.08,1.72,16.36,16.36,0,0,0,3.42,1.14c.83.23,1.67.47,2.51.68,2.89.72,5.06,2.23,5.91,5.24v2.72a7,7,0,0,1-5.51,5.34c-.43.09-.92,0-1.29.33Z"/></svg>