<svg id="Layer_1" data-name="Layer 1" xmlns="http://www.w3.org/2000/svg" xmlns:xlink="http://www.w3.org/1999/xlink" viewBox="0 0 1920 576.73"><defs><style>.cls-1{fill:none;}.cls-2{fill:#70737b;}.cls-3{fill:#7f7f7f;}.cls-4{fill:#f06724;}.cls-5{clip-path:url(#clip-path);}.cls-6{fill:#7c7d7d;}</style><clipPath id="clip-path"><rect class="cls-1" x="935.86" y="223.37" width="950.03" height="129.98"/></clipPath></defs><polygon class="cls-2" points="1369.1 317.23 1372.57 317.23 1372.57 339.27 1369.1 339.27 1369.1 317.23 1369.1 317.23 1369.1 317.23"/><path class="cls-2" d="M1396.55,339.63l-13-16.62a8.31,8.31,0,0,1-1.08-1.7h-.17c0,.46,0,1.37,0,2.22v15.74h-2.9V317.33l3.71-.26.27.16,10.92,14.37a10.94,10.94,0,0,1,1.52,2.32h.13c0-.59,0-1.7,0-2.48V317.23h2.9v22.4Z"/><polygon class="cls-2" points="1414.53 319.75 1414.53 339.27 1411.06 339.27 1411.06 319.75 1402.77 319.75 1402.77 317.23 1422.79 317.23 1422.79 319.75 1414.53 319.75 1414.53 319.75 1414.53 319.75"/><path class="cls-2" d="M1440.29,339.28h-13.62v-22h13.22v2.48h-9.75v6.54h8.7v2.51h-8.7v7c0,.84.44,1,1,1h9.47l-.37,2.49Z"/><path class="cls-2" d="M1459.19,339.44l-.24-.16-9.27-11.43h1.18c2.9,0,5.66-1.15,5.66-4.38,0-3.43-2.49-4.11-5.76-4.11h-2v19.92h-3.47v-22H1452c3.77,0,8.25.82,8.25,5.65,0,3.36-2.59,5.39-5.46,6.11l8.6,10.19-4.21.26Z"/><path class="cls-2" d="M1484.38,339.63l-13-16.62a7.9,7.9,0,0,1-1.08-1.7h-.17c0,.46,0,1.37,0,2.22v15.74h-2.9V317.33l3.71-.26.27.16,10.92,14.37a10.94,10.94,0,0,1,1.52,2.32h.14c0-.59,0-1.7,0-2.48V317.23h2.9v22.4Z"/><path class="cls-2" d="M1501.87,323.18a10.64,10.64,0,0,1-.81-2.81h-.13a11.93,11.93,0,0,1-1,2.87l-2.89,6.95h7.44l-2.66-7Zm6.37,16.26-.27-.16-2.59-6.9h-9.14l-2.87,6.9-.27.16-2.66-.26,9.68-22.53h2.63l8.93,22.53-3.44.26Z"/><polygon class="cls-2" points="1521.78 319.75 1521.78 339.27 1518.31 339.27 1518.31 319.75 1510.02 319.75 1510.02 317.23 1530.05 317.23 1530.05 319.75 1521.78 319.75 1521.78 319.75 1521.78 319.75"/><polygon class="cls-2" points="1534 317.23 1537.47 317.23 1537.47 339.27 1534 339.27 1534 317.23 1534 317.23 1534 317.23"/><path class="cls-2" d="M1553.53,319c-3.51,0-7.45,1.95-7.45,9.27,0,7,3.67,9.14,7.48,9.14s7.49-2.15,7.49-9.14-3.78-9.27-7.52-9.27m0,20.8c-6.67,0-11.26-3.95-11.26-11.53a11.29,11.29,0,0,1,11.26-11.65c6.07,0,11.26,3.55,11.26,11.65a11.22,11.22,0,0,1-11.26,11.53"/><path class="cls-2" d="M1586.76,339.63l-13-16.62a7.9,7.9,0,0,1-1.08-1.7h-.17c0,.46,0,1.37,0,2.22v15.74h-2.9V317.33l3.7-.26.27.16,10.93,14.37a10.94,10.94,0,0,1,1.52,2.32h.13c0-.59,0-1.7,0-2.48V317.23h2.9v22.4Z"/><path class="cls-2" d="M1604.25,323.18a10.64,10.64,0,0,1-.81-2.81h-.13a11.93,11.93,0,0,1-1,2.87l-2.89,6.95h7.44l-2.66-7Zm6.37,16.26-.27-.16-2.59-6.9h-9.14l-2.86,6.9-.27.16-2.67-.26,9.68-22.53h2.63l8.93,22.53-3.44.26Z"/><path class="cls-2" d="M1631.41,339.28h-13.62v-22h3.48v18.52c0,.84.44,1,1,1h9.48l-.38,2.49Z"/><path class="cls-2" d="M1658.24,339.44l-.24-.16-9.27-11.43h1.18c2.9,0,5.67-1.15,5.67-4.38,0-3.43-2.5-4.11-5.77-4.11h-2v19.92h-3.47v-22h6.74c3.78,0,8.26.82,8.26,5.65,0,3.36-2.6,5.39-5.46,6.11l8.6,10.19-4.22.26Z"/><path class="cls-2" d="M1680,339.28h-13.62v-22h13.21v2.48h-9.74v6.54h8.69v2.51h-8.69v7c0,.84.44,1,1,1h9.48l-.37,2.49Z"/><path class="cls-2" d="M1694.13,323.18a10.64,10.64,0,0,1-.81-2.81h-.13a12.35,12.35,0,0,1-.94,2.87l-2.9,6.95h7.44l-2.66-7Zm6.38,16.26-.28-.16-2.59-6.9h-9.14l-2.87,6.9-.26.16-2.66-.26,9.67-22.53H1695l8.93,22.53-3.43.26Z"/><path class="cls-2" d="M1721.3,339.28h-13.62v-22h3.48v18.52c0,.84.43,1,1,1h9.47l-.37,2.49Z"/><path class="cls-2" d="M1747.83,339.28H1734.2v-22h13.22v2.48h-9.75v6.54h8.7v2.51h-8.7v7c0,.84.44,1,1,1h9.47l-.36,2.49Z"/><path class="cls-2" d="M1757.67,339.73a13.06,13.06,0,0,1-6-1.37l1-2.51a10.64,10.64,0,0,0,5.15,1.4c2.36,0,5.09-1,5.09-3.62,0-2.26-2-3.33-3.88-4.12l-2.76-1.18c-2.3-1-4.35-2.54-4.35-5.41,0-3.92,3.85-6.24,7.79-6.24a11.53,11.53,0,0,1,5.46,1.31l-1.18,2.64a8.71,8.71,0,0,0-4.65-1.47c-2.63,0-4.22,1.11-4.22,2.87s1.53,2.61,3.58,3.53l3,1.3c2.26,1,4.52,2.88,4.52,5.75,0,4.48-4.15,7.12-8.6,7.12"/><polygon class="cls-2" points="1780.39 319.75 1780.39 339.27 1776.92 339.27 1776.92 319.75 1768.62 319.75 1768.62 317.23 1788.65 317.23 1788.65 319.75 1780.39 319.75 1780.39 319.75 1780.39 319.75"/><path class="cls-2" d="M1798.12,323.18a10.64,10.64,0,0,1-.81-2.81h-.13a11.51,11.51,0,0,1-1,2.87l-2.9,6.95h7.46l-2.67-7Zm6.37,16.26-.27-.16-2.6-6.9h-9.13l-2.86,6.9-.28.16-2.66-.26,9.68-22.53H1799l8.94,22.53-3.44.26Z"/><polygon class="cls-2" points="1818.03 319.75 1818.03 339.27 1814.57 339.27 1814.57 319.75 1806.27 319.75 1806.27 317.23 1826.29 317.23 1826.29 319.75 1818.03 319.75 1818.03 319.75 1818.03 319.75"/><path class="cls-2" d="M1843.79,339.28h-13.61v-22h13.22v2.48h-9.75v6.54h8.69v2.51h-8.69v7c0,.84.44,1,1,1h9.47l-.38,2.49Z"/><path class="cls-2" d="M1843.66,287.83c2.32,8.67,10,13.73,18.68,13.73,7.4,0,15.26-3.8,15.26-11.49,0-14-35.49-18.3-35.49-35.34,0-8.08,8.4-14.12,19.68-14.12,9.28,0,11.16,2.44,15,2.44a2.2,2.2,0,0,0,2-1h1.76l1.88,12.37h-1.88a19.48,19.48,0,0,0-17.8-11.49c-7.29,0-12.38,3.7-12.38,9.15,0,13.82,35.49,17.53,35.49,35.44,0,9.54-9.62,16.65-22.55,16.65-6.09,0-13.83-2.63-15.38-2.63a2.75,2.75,0,0,0-2.2,1.07h-1.89l-2.31-14.8Zm-22-28.82c5.54-2.82,8.52-6.23,8.52-9.73,0-1.17-.43-2-1.55-2s-1.43.28-2.65.28c-2.88,0-5-1.84-5-4.38s2.66-4.76,6-4.76c4.43,0,7.74,3.4,7.74,8.08,0,6-5,11.87-12.27,14.3l-.78-1.75Zm-17,21.72h-2.1c-.89-6.92-3-7.7-7.51-7.7h-18.69v20.74c0,4.48,1.87,5.35,6,5.35h17c7.73,0,10.06-2.62,12.83-11h2l-1.78,14.51h-58.7v-1.85h3.1c8.84,0,10.39-2.14,10.39-8V251.71c0-5.45-1.44-7.79-8.85-7.79h-2.43v-1.85H1809l.88,13.53h-2c-1.43-8.27-4.2-10-8.18-10h-23.32v23.95h19.78c4,0,5.86-1.65,6.42-7.3h2.1v18.5Zm-56.25,21.9h-26.86v-1.85c6.85-.29,8.28-1.85,8.28-8.37V250.94c0-5.26-2.09-6.72-8.28-7v-1.85h26.86v1.85c-7,0-9.4,1.37-9.4,7.89v41.28c0,5.74,1.77,7.69,9.4,7.69v1.85Zm-64.66-9c0,5.26,2,7.11,8.74,7.11h4.09v1.85h-34.83v-1.85h4.09c6.75,0,8.74-1.85,8.74-7.11V245.58h-19.24c-4.42,0-6.41,2.24-8.06,10.8h-2l1.77-15.77h2.09a1.56,1.56,0,0,0,1.22,1.17,7.94,7.94,0,0,0,2.22.29h53.18c1.55,0,3.2-.29,3.42-1.46h2.1l1.78,15.77h-2c-1.65-8.56-3.65-10.8-8.06-10.8h-19.25v48.09ZM1599,287.83c2.32,8.67,10.06,13.73,18.68,13.73,7.41,0,15.26-3.8,15.26-11.49,0-14-35.49-18.3-35.49-35.34,0-8.08,8.4-14.12,19.68-14.12,9.28,0,11.16,2.44,15,2.44a2.19,2.19,0,0,0,2-1h1.77l1.88,12.37h-1.88a19.48,19.48,0,0,0-17.8-11.49c-7.29,0-12.38,3.7-12.38,9.15,0,13.82,35.49,17.53,35.49,35.44,0,9.54-9.62,16.65-22.56,16.65-6.08,0-13.81-2.63-15.36-2.63a2.77,2.77,0,0,0-2.21,1.07h-1.88l-2.32-14.8ZM1587,302.63h-26.86v-1.85c6.85-.29,8.29-1.85,8.29-8.37V250.94c0-5.26-2.1-6.72-8.29-7v-1.85H1587v1.85c-7,0-9.4,1.37-9.4,7.89v41.28c0,5.74,1.77,7.69,9.4,7.69v1.85Zm-81.37-28.23a32.34,32.34,0,0,0,6,.77c12,0,19.79-7.2,19.79-17,0-7.6-3.42-15.09-18.13-15.09a50.75,50.75,0,0,0-7.63.39v31Zm0,1.84v17c0,5.45,1.88,7.5,8.85,7.5h3.64v1.85h-30.62v-1.85h1.55c5.75,0,7.41-1.07,7.41-5.65v-46c0-3.6-1.33-5.16-5.2-5.16h-5.53v-1.85c3.1-.09,8.52-.39,13.93-.58s10.73-.29,13.71-.29c23.11,0,28.42,9.74,28.42,17.23,0,11.39-10.29,15.58-13,16.45l13.15,17.53a78.18,78.18,0,0,0,6.09,6.71c1.54,1.37,3,2.15,6.18,3v1.76h-1.43c-10.73,0-17.14-4.78-28.52-21.32a38,38,0,0,0-4.65-5.75s-8,.68-13.93-.59m-87.79-2.53v18.5c0,6.33,1.44,8.57,8.85,8.57h.34v1.85H1399.3v-1.85h.67c6.52,0,8.73-1.56,8.73-7.11V250.84c0-5.07-1.88-6.53-8-6.92v-1.85h26.32v1.85c-7.85,0-9.19,1.85-9.19,9.35v16.94h43.35V251c0-5.16-1.88-7.11-8.74-7.11h-2.1v-1.85h28.41v1.85c-6.63.2-8.4,2-8.4,8v40.4c0,6.91,2.21,8.47,8.85,8.47h1.1v1.85h-31.29v-1.85h3.43c7.19,0,8.74-2.24,8.74-7.31V273.71ZM1389.38,258c-3.65-9.05-13.16-15-25.21-15-18.46,0-30,11.78-30,28.13,0,17.63,14.38,30.57,31.18,30.57,8.73,0,19.46-2.63,27-14.41h2.1a62.91,62.91,0,0,1-7.07,14.22c-7.09-.88-12,2.63-25,2.63-22.45,0-38.58-13.05-38.58-31.06,0-18.89,16.58-32.52,39.69-32.52,13.92,0,19.9,3.9,23.32,3.9,1.22,0,1.77-.29,2-.59h1.66l1,14.12Z"/><polygon class="cls-2" points="1369.1 317.23 1372.57 317.23 1372.57 339.27 1369.1 339.27 1369.1 317.23 1369.1 317.23 1369.1 317.23"/><path class="cls-2" d="M1396.55,339.63l-13-16.62a8.31,8.31,0,0,1-1.08-1.7h-.17c0,.46,0,1.37,0,2.22v15.74h-2.9V317.33l3.71-.26.27.16,10.92,14.37a10.94,10.94,0,0,1,1.52,2.32h.13c0-.59,0-1.7,0-2.48V317.23h2.9v22.4Z"/><polygon class="cls-2" points="1414.53 319.75 1414.53 339.27 1411.06 339.27 1411.06 319.75 1402.77 319.75 1402.77 317.23 1422.79 317.23 1422.79 319.75 1414.53 319.75 1414.53 319.75 1414.53 319.75"/><path class="cls-2" d="M1440.29,339.28h-13.62v-22h13.22v2.48h-9.75v6.54h8.7v2.51h-8.7v7c0,.84.44,1,1,1h9.47l-.37,2.49Z"/><path class="cls-2" d="M1459.19,339.44l-.24-.16-9.27-11.43h1.18c2.9,0,5.66-1.15,5.66-4.38,0-3.43-2.49-4.11-5.76-4.11h-2v19.92h-3.47v-22H1452c3.77,0,8.25.82,8.25,5.65,0,3.36-2.59,5.39-5.46,6.11l8.6,10.19-4.21.26Z"/><path class="cls-2" d="M1484.38,339.63l-13-16.62a7.9,7.9,0,0,1-1.08-1.7h-.17c0,.46,0,1.37,0,2.22v15.74h-2.9V317.33l3.71-.26.27.16,10.92,14.37a10.94,10.94,0,0,1,1.52,2.32h.14c0-.59,0-1.7,0-2.48V317.23h2.9v22.4Z"/><path class="cls-2" d="M1501.87,323.18a10.64,10.64,0,0,1-.81-2.81h-.13a11.93,11.93,0,0,1-1,2.87l-2.89,6.95h7.44l-2.66-7Zm6.37,16.26-.27-.16-2.59-6.9h-9.14l-2.87,6.9-.27.16-2.66-.26,9.68-22.53h2.63l8.93,22.53-3.44.26Z"/><polygon class="cls-2" points="1521.78 319.75 1521.78 339.27 1518.31 339.27 1518.31 319.75 1510.02 319.75 1510.02 317.23 1530.05 317.23 1530.05 319.75 1521.78 319.75 1521.78 319.75 1521.78 319.75"/><polygon class="cls-2" points="1534 317.23 1537.47 317.23 1537.47 339.27 1534 339.27 1534 317.23 1534 317.23 1534 317.23"/><path class="cls-2" d="M1553.53,319c-3.51,0-7.45,1.95-7.45,9.27,0,7,3.67,9.14,7.48,9.14s7.49-2.15,7.49-9.14-3.78-9.27-7.52-9.27m0,20.8c-6.67,0-11.26-3.95-11.26-11.53a11.29,11.29,0,0,1,11.26-11.65c6.07,0,11.26,3.55,11.26,11.65a11.22,11.22,0,0,1-11.26,11.53"/><path class="cls-2" d="M1586.76,339.63l-13-16.62a7.9,7.9,0,0,1-1.08-1.7h-.17c0,.46,0,1.37,0,2.22v15.74h-2.9V317.33l3.7-.26.27.16,10.93,14.37a10.94,10.94,0,0,1,1.52,2.32h.13c0-.59,0-1.7,0-2.48V317.23h2.9v22.4Z"/><path class="cls-2" d="M1604.25,323.18a10.64,10.64,0,0,1-.81-2.81h-.13a11.93,11.93,0,0,1-1,2.87l-2.89,6.95h7.44l-2.66-7Zm6.37,16.26-.27-.16-2.59-6.9h-9.14l-2.86,6.9-.27.16-2.67-.26,9.68-22.53h2.63l8.93,22.53-3.44.26Z"/><path class="cls-2" d="M1631.41,339.28h-13.62v-22h3.48v18.52c0,.84.44,1,1,1h9.48l-.38,2.49Z"/><path class="cls-2" d="M1658.24,339.44l-.24-.16-9.27-11.43h1.18c2.9,0,5.67-1.15,5.67-4.38,0-3.43-2.5-4.11-5.77-4.11h-2v19.92h-3.47v-22h6.74c3.78,0,8.26.82,8.26,5.65,0,3.36-2.6,5.39-5.46,6.11l8.6,10.19-4.22.26Z"/><path class="cls-2" d="M1680,339.28h-13.62v-22h13.21v2.48h-9.74v6.54h8.69v2.51h-8.69v7c0,.84.44,1,1,1h9.48l-.37,2.49Z"/><path class="cls-2" d="M1694.13,323.18a10.64,10.64,0,0,1-.81-2.81h-.13a12.35,12.35,0,0,1-.94,2.87l-2.9,6.95h7.44l-2.66-7Zm6.38,16.26-.28-.16-2.59-6.9h-9.14l-2.87,6.9-.26.16-2.66-.26,9.67-22.53H1695l8.93,22.53-3.43.26Z"/><path class="cls-2" d="M1721.3,339.28h-13.62v-22h3.48v18.52c0,.84.43,1,1,1h9.47l-.37,2.49Z"/><path class="cls-2" d="M1747.83,339.28H1734.2v-22h13.22v2.48h-9.75v6.54h8.7v2.51h-8.7v7c0,.84.44,1,1,1h9.47l-.36,2.49Z"/><path class="cls-2" d="M1757.67,339.73a13.06,13.06,0,0,1-6-1.37l1-2.51a10.64,10.64,0,0,0,5.15,1.4c2.36,0,5.09-1,5.09-3.62,0-2.26-2-3.33-3.88-4.12l-2.76-1.18c-2.3-1-4.35-2.54-4.35-5.41,0-3.92,3.85-6.24,7.79-6.24a11.53,11.53,0,0,1,5.46,1.31l-1.18,2.64a8.71,8.71,0,0,0-4.65-1.47c-2.63,0-4.22,1.11-4.22,2.87s1.53,2.61,3.58,3.53l3,1.3c2.26,1,4.52,2.88,4.52,5.75,0,4.48-4.15,7.12-8.6,7.12"/><polygon class="cls-2" points="1780.39 319.75 1780.39 339.27 1776.92 339.27 1776.92 319.75 1768.62 319.75 1768.62 317.23 1788.65 317.23 1788.65 319.75 1780.39 319.75 1780.39 319.75 1780.39 319.75"/><path class="cls-2" d="M1798.12,323.18a10.64,10.64,0,0,1-.81-2.81h-.13a11.51,11.51,0,0,1-1,2.87l-2.9,6.95h7.46l-2.67-7Zm6.37,16.26-.27-.16-2.6-6.9h-9.13l-2.86,6.9-.28.16-2.66-.26,9.68-22.53H1799l8.94,22.53-3.44.26Z"/><polygon class="cls-2" points="1818.03 319.75 1818.03 339.27 1814.57 339.27 1814.57 319.75 1806.27 319.75 1806.27 317.23 1826.29 317.23 1826.29 319.75 1818.03 319.75 1818.03 319.75 1818.03 319.75"/><path class="cls-3" d="M1222.63,223.37c0,.34,0,.67,0,1v98.55c0,1.16.14,1-1,1a2.16,2.16,0,0,1-1.95-.88Q1202.81,304,1185.93,285q-16.12-18.23-32.24-36.44l-.34-.36a1.36,1.36,0,0,0-.13.91q0,36.84,0,73.69c0,1.19,0,1.19-1.16,1.19-2.47,0-4.93,0-7.4,0-.7,0-.88-.18-.88-.88q0-41.31,0-82.62,0-8.55,0-17.1h2.31a4.73,4.73,0,0,0,.31.43l6.21,7.15,31.4,36.13,26.25,30.21,2.75,3.13a1.83,1.83,0,0,0,.12-1q0-37.56,0-75.13c0-.3,0-.61-.05-.92Z"/><path class="cls-3" d="M1073.49,312.22c-1.31,0-2.62,0-3.92,0-.52,0-.73-.11-.72-.67,0-2.67,0-5.34,0-8,0-.42.12-.57.56-.57q4.08,0,8.16,0c.45,0,.56.16.56.58q0,4.05,0,8.08c0,.51-.2.59-.64.58-1.33,0-2.67,0-4,0"/><path class="cls-3" d="M1090.31,319.79c0,1.33,0,2.66,0,4,0,.45-.1.62-.59.62q-4,0-8.07,0c-.42,0-.58-.1-.58-.55q0-4.08,0-8.15c0-.46.18-.55.59-.55q4,0,8.07,0c.5,0,.59.19.58.63,0,1.34,0,2.67,0,4"/><path class="cls-3" d="M1090.31,307.57c0,1.36,0,2.72,0,4.08,0,.43-.13.58-.57.57-2.69,0-5.39,0-8.08,0-.5,0-.59-.19-.59-.63q0-4,0-8c0-.47.12-.61.6-.61q4,0,8,0c.53,0,.64.18.63.66,0,1.31,0,2.62,0,3.93"/><path class="cls-3" d="M1078.12,319.72c0,1.36,0,2.72,0,4.08,0,.46-.13.61-.61.61-2.67,0-5.34,0-8,0-.52,0-.63-.19-.63-.67,0-2.64,0-5.28,0-7.93,0-.5.14-.65.65-.65,2.64,0,5.29,0,7.93,0,.57,0,.68.19.67.71,0,1.28,0,2.56,0,3.85"/><path class="cls-4" d="M1081.1,223.37q23.19,50.24,46.44,100.59h-2.16c-2.44,0-4.88,0-7.31,0a1.13,1.13,0,0,1-1.19-.78q-18.35-38.7-36.7-77.39c-.11-.23-.23-.46-.38-.78l-3.16,6.56q-17.19,35.85-34.37,71.69a1,1,0,0,1-1.09.69c-3.36,0-6.72,0-10.09,0a2.21,2.21,0,0,1,.36-1l46.47-98.85c.12-.24.34-.46.25-.78Z"/><path class="cls-3" d="M1110.77,272.68c-1.36-2.89-2.65-5.62-3.93-8.35L1101.05,252a2.51,2.51,0,0,1-.27-1.1c0-2.52,0-5,0-7.55,0-.55.09-.75.7-.75,2.9,0,5.8,0,8.7,0,.47,0,.67.09.67.62q0,14.55,0,29.11a2.72,2.72,0,0,1-.07.33"/><path class="cls-3" d="M1014.72,223.37q0,42.51,0,85c0,4.95,0,9.9,0,14.86,0,.55-.13.7-.71.74a2.66,2.66,0,0,1-2.42-1.06Q996,305.21,980.37,287.55l-21.94-24.78-12.39-14c-.16-.18-.35-.35-.65-.64V323c0,1,0,1-1,1-2.54,0-5.08,0-7.62,0-.72,0-.88-.21-.88-.9q0-34.31,0-68.6,0-15.09,0-30.19c0-.3,0-.61,0-.92h2.31c1.09,1.27,2.17,2.54,3.27,3.79q13.6,15.66,27.23,31.31l36.1,41.55c.14.15.21.42.53.36v-76c0-.34,0-.67,0-1Z"/><path class="cls-3" d="M1165.34,315.27a1.07,1.07,0,0,0-1.14-1c-.56,0-1,.23-1.09.86,0,.4.78,1.5,1.08,1.49s1.14-.92,1.15-1.34m-1.86,7.43a3,3,0,0,0,1.57-.54c.35-.22.36-.43.1-.73-.54-.65-1.06-1.32-1.6-2-.13-.15-.21-.34-.5-.24a2.24,2.24,0,0,0-1.24,2.2,1.57,1.57,0,0,0,1.67,1.28m3.35-2.69a1.51,1.51,0,0,0,.19-.41c.1-.65.38-.8,1-.62,1.25.35,1.26.3.81,1.51s-.51,1.32.68,2.08c.46.3.42.49.12.87-1,1.33-1,1.35-2.31.27a.65.65,0,0,0-1-.06,4.85,4.85,0,0,1-4.9.47c-2.48-1-2.69-4.1-.44-5.79.88-.66.88-.66.33-1.65a2.45,2.45,0,0,1,1.8-3.88,4.37,4.37,0,0,1,2.27.1,2.48,2.48,0,0,1,.92,4.3c-.34.32-1,.47-1,.94s.51.8.81,1.18.31.54.63.69"/><path class="cls-3" d="M1179.19,318.31a6.67,6.67,0,0,0,.3,2.35,2.8,2.8,0,0,0,2.71,2.11,2.54,2.54,0,0,0,2.71-1.94c.23-.76.56-.75,1.13-.5l.21.07c1.68.52,1.69.55.8,2.13-1.77,3.12-6.55,3.43-9.06.59-2.24-2.53-2-7.66.47-9.95a6.25,6.25,0,0,1,7.17-.64,4.67,4.67,0,0,1,1.89,2.44c.14.37.12.58-.32.64a3.9,3.9,0,0,0-.59.14c-.88.28-1.47.35-2.07-.72-1-1.75-3.91-1.37-4.85.51a5.72,5.72,0,0,0-.5,2.77"/><g class="cls-5"><path class="cls-3" d="M1203.54,318.31a5.45,5.45,0,0,0-.38-2.33,3.45,3.45,0,0,0-6.27-.07,6.33,6.33,0,0,0,0,4.8,3.4,3.4,0,0,0,6.35-.2,5.88,5.88,0,0,0,.32-2.2M1200,325c-3.79.08-6.54-2.48-6.28-7.17a6.38,6.38,0,0,1,1.78-4.46c2-1.93,4.35-2.07,6.79-1.3s3.49,2.55,3.85,4.92a9.41,9.41,0,0,1-.08,3.22A5.74,5.74,0,0,1,1200,325"/><path class="cls-3" d="M938.94,342.52c0,.69,0,1.25,0,1.81s.14.53.54.53a22.94,22.94,0,0,0,3-.14,2,2,0,0,0,1.82-2,2,2,0,0,0-1.69-2.06,5.65,5.65,0,0,0-1.53-.12c-.68,0-1.56-.29-2,.13s-.07,1.27-.12,1.81m-3.07,3c0-2.25,0-4.51,0-6.76,0-.54.08-.78.7-.76,2.15.07,4.3.07,6.45.08,2.82,0,4.91,2.2,4.33,5.64a4.25,4.25,0,0,1-4.23,3.64c-1.18.06-2.36.07-3.54.05-.51,0-.65.15-.64.65,0,1.41,0,2.83,0,4.23,0,.71-.22.9-.87.83a8.8,8.8,0,0,0-1.54,0c-.52,0-.7-.13-.69-.68,0-2.3,0-4.61,0-6.92"/></g><path class="cls-3" d="M972.64,340.57h-2.06c-.33,0-.52.05-.51.45,0,1,0,2,0,2.93,0,.32.11.46.44.45a33.22,33.22,0,0,0,4.23-.14,1.84,1.84,0,0,0,.21-3.55,10.37,10.37,0,0,0-2.31-.14m2.89,5.9c2.45,1.66,3.43,4.28,5.1,6.61h-3.46c-.32,0-.41-.26-.55-.47-1-1.42-2-2.82-2.89-4.26a3.07,3.07,0,0,0-3-1.54c-.51,0-.71.13-.7.69,0,1.61,0,3.23,0,4.84,0,.64-.2.79-.78.75a10.72,10.72,0,0,0-1.7,0c-.47,0-.62-.14-.61-.61,0-1.47,0-2.93,0-4.39V338.7c0-.41,0-.74.57-.72,2.64.07,5.28-.1,7.92.13a3.84,3.84,0,0,1,3.73,3,4.14,4.14,0,0,1-1.64,4.61,7.24,7.24,0,0,1-2.06.77"/><path class="cls-3" d="M1001.47,345.59a6.33,6.33,0,0,0,.39,2.53,4,4,0,0,0,4,2.61,3.9,3.9,0,0,0,3.59-3,8.45,8.45,0,0,0,.12-4,4.05,4.05,0,0,0-8,.08,8.34,8.34,0,0,0-.14,1.79m2.78,7.77c-.11-.2-.31-.14-.48-.18a6.69,6.69,0,0,1-5.36-5.81,11.28,11.28,0,0,1,.31-4.87,6.54,6.54,0,0,1,6.08-4.71,9.77,9.77,0,0,1,3.05.24,6.76,6.76,0,0,1,5,6.22,11.7,11.7,0,0,1-.26,4,6.56,6.56,0,0,1-5.1,4.89c-.16,0-.37,0-.48.18Z"/><path class="cls-3" d="M1035.92,342.55c0,.66,0,1.19,0,1.73s.12.58.56.58a25.55,25.55,0,0,0,2.91-.13,2,2,0,0,0,1.84-1.92,1.91,1.91,0,0,0-1.69-2.1,9.75,9.75,0,0,0-1.52-.13c-.66,0-1.51-.28-1.94.11s-.08,1.3-.16,1.86m-3.1,3c0-2.26,0-4.52,0-6.77,0-.66.21-.82.83-.8,2.16.06,4.31,0,6.46.08,2.37,0,4.55,1.76,4.31,5.05a4.33,4.33,0,0,1-4.35,4.22c-1.1.06-2.21.1-3.31.08-.62,0-.86.15-.83.81,0,1.38,0,2.77,0,4.15,0,.6-.19.76-.75.72a9.54,9.54,0,0,0-1.69,0c-.55,0-.7-.16-.69-.69,0-2.29,0-4.57,0-6.85"/><path class="cls-3" d="M1064.07,345.56c0-2.26,0-4.52,0-6.78,0-.55.08-.81.75-.81,3.25,0,6.51,0,9.77,0,.54,0,.7.15.7.69,0,1.9,0,1.9-1.92,1.9s-3.69,0-5.54,0c-.49,0-.69.13-.65.65a20.61,20.61,0,0,1,0,2.08c0,.52.18.65.67.64,2,0,4.05,0,6.08,0,.71,0,.85.22.84.87,0,1.67,0,1.67-1.71,1.67s-3.44,0-5.16,0c-.59,0-.75.18-.73.74,0,.9,0,1.8,0,2.7,0,.53.14.71.69.7,2.31,0,4.62,0,6.92,0,.67,0,.81.2.8.82,0,1.72,0,1.72-1.73,1.72-3,0-6,0-9,0-.59,0-.8-.13-.79-.76,0-2.25,0-4.51,0-6.77"/><path class="cls-3" d="M1100.48,340.59v0c-.64,0-1.28,0-1.92,0-.37,0-.49.13-.48.49,0,.92,0,1.84,0,2.76,0,.43.14.6.58.58,1.25,0,2.51,0,3.76-.1s1.83-.75,1.8-1.93a1.73,1.73,0,0,0-1.89-1.78c-.61,0-1.22,0-1.84,0m3.13,5.88a21.42,21.42,0,0,1,4.9,6.6h-3.37c-.32,0-.4-.3-.54-.5-1-1.48-2-2.94-3-4.45a3.07,3.07,0,0,0-3-1.3c-.47,0-.45.31-.45.62,0,1.65,0,3.29,0,4.93,0,.59-.17.76-.74.72a14.28,14.28,0,0,0-1.85,0c-.4,0-.53-.14-.53-.54q0-7,0-14c0-.44.17-.58.59-.57,2.61.06,5.23-.09,7.84.12a3.93,3.93,0,0,1,3.94,3.76,4,4,0,0,1-3.12,4.41l-.65.2"/><path class="cls-3" d="M1133.79,346.81c0,1.82,0,3.64,0,5.46,0,.71-.22.89-.87.82a8.8,8.8,0,0,0-1.54,0c-.54,0-.69-.16-.69-.69,0-3.67,0-7.34,0-11,0-.68-.16-.88-.85-.84-1,.06-2,0-3.07,0-.43,0-.57-.11-.58-.56-.06-2-.08-2,2-2,3.13,0,6.25,0,9.38,0,.53,0,.7.14.7.68,0,1.91,0,1.89-1.91,1.92-.84,0-1.92-.37-2.44.16s-.12,1.56-.13,2.38c0,1.23,0,2.46,0,3.69"/><path class="cls-3" d="M1160.52,345.58c0,2.28,0,4.57,0,6.85,0,.54-.15.73-.69.69s-1.23,0-1.85,0c-.38,0-.54-.11-.54-.52q0-7.05,0-14.08c0-.4.12-.55.52-.54a13.07,13.07,0,0,0,1.77,0c.59-.05.8.12.79.75,0,2.29,0,4.57,0,6.85"/><path class="cls-3" d="M1180.63,345.49c0-2.28,0-4.56,0-6.85,0-.49.12-.67.64-.66q5,0,9.93,0c.49,0,.65.12.66.64,0,1.95,0,1.95-1.94,1.95s-3.7,0-5.54,0c-.56,0-.72.17-.68.7a12.56,12.56,0,0,1,0,1.84c-.06.68.23.81.84.8,2,0,4,0,6.08,0,.52,0,.71.14.71.69,0,1.88,0,1.88-1.88,1.88-1.69,0-3.39,0-5.08,0-.49,0-.69.13-.67.64q0,1.43,0,2.85c0,.52.18.65.67.65,2.33,0,4.67,0,7,0,.57,0,.8.1.79.74,0,1.79,0,1.79-1.81,1.79-2.95,0-5.9,0-8.85,0-.74,0-.89-.23-.87-.91,0-2.23,0-4.46,0-6.7"/><path class="cls-3" d="M1215.85,353.36c-.25-.26-.61-.21-.92-.29a5.07,5.07,0,0,1-3.69-4.21c-.1-.48,0-.8.58-.75a3.16,3.16,0,0,0,.68-.08c1.39-.19,1.39-.19,2,1.07a3.57,3.57,0,0,0,5.3.89,1.55,1.55,0,0,0-.49-2.68,20,20,0,0,0-3-.87,9.59,9.59,0,0,1-2.5-1,3.86,3.86,0,0,1-2.06-3.91,3.79,3.79,0,0,1,2.61-3.32,8.31,8.31,0,0,1,6,.06,4.12,4.12,0,0,1,2.6,3.38c.07.46,0,.74-.58.7a4.78,4.78,0,0,0-1,0c-.84.09-1.58.11-1.8-1a1.38,1.38,0,0,0-1-.89,4.19,4.19,0,0,0-3.15.12,1.18,1.18,0,0,0-.06,2.21,10.14,10.14,0,0,0,2.33.78c.56.16,1.13.32,1.7.46a5,5,0,0,1,4,3.57v1.85a4.76,4.76,0,0,1-3.75,3.62c-.29.06-.62,0-.87.23Z"/><rect class="cls-6" x="819.74" y="86.6" width="1.67" height="403.53"/><path class="cls-6" d="M320.85,179.59v55.15H314V179.59h-15v-6.47h36.77v6.47Z"/><path class="cls-6" d="M361.13,198.16h31.59v-25h6.84v61.62h-6.84V204.62H361.13v30.12h-6.84V173.12h6.84Z"/><path class="cls-6" d="M456.65,179.59H431.52v18.29h24.39v6.47H431.52v23.92h25.13v6.47h-32V173.12h32Z"/><path class="cls-6" d="M34.11,317.88V256.26h8.31l37.51,41.11V256.26h12v61.62H83.63l-37.51-41.2v41.2Z"/><path class="cls-6" d="M120.3,256.26v61.62h-12V256.26Z"/><path class="cls-6" d="M148.66,282.31l22.63-26.05h15.15l-26.05,28.46,27.44,33.16H171.94L150,290.26l-1.38,1.39v26.23h-12V256.26h12Z"/><path class="cls-6" d="M209.72,282.31l22.63-26.05h15.16l-26.06,28.46,27.44,33.16H233l-21.89-27.62-1.39,1.39v26.23h-12V256.26h12Z"/><path class="cls-6" d="M270.78,256.26v61.62h-12V256.26Z"/><path class="cls-6" d="M323,280.1H349V256.26h12v61.62H349V290.44H323v27.44H311V256.26h12Z"/><path class="cls-6" d="M440.2,287.12c0,18.75-13.48,32.15-32.88,32.15s-32.89-13.4-32.89-32.15,13.49-32.24,32.89-32.24S440.2,268.36,440.2,287.12Zm-12.37,0c0-12.47-8.5-21.34-20.51-21.34s-20.51,8.87-20.51,21.34,8.5,21.25,20.51,21.25S427.83,299.59,427.83,287.12Z"/><path class="cls-6" d="M465.61,280.1h26.05V256.26h12v61.62h-12V290.44H465.61v27.44h-12V256.26h12Z"/><path class="cls-6" d="M528.33,256.26H537l16.36,39.17,17.09-39.17h8.68l10.35,61.62h-12.2l-5.54-38-16.54,38h-4.06l-15.8-38-6.28,38h-12.2Z"/><path class="cls-6" d="M639.19,305H614.33l-5.45,12.93h-13l26.51-61.62h9.42l25.78,61.62H644.64Zm-3.52-9.79L626.9,273l-8.78,22.18Z"/><path class="cls-6" d="M667.08,317.88V256.26h8.32l37.5,41.11V256.26h12v61.62H716.6l-37.51-41.2v41.2Z"/><path class="cls-6" d="M278.22,345.87V401h-6.84V345.87h-15V339.4h36.77v6.47Z"/><path class="cls-6" d="M343.62,345.87H318.49v18.29h24.39v6.47H318.49v23.93h25.13V401h-32V339.4h32Z"/><path class="cls-6" d="M399.42,383.66H373.18L365.79,401h-7.57l28.36-64.57L414.2,401h-7.58Zm-2.68-6.47-10.35-24.67-10.53,24.67Z"/><path class="cls-6" d="M430,401l10.26-65,23.65,52L488,335.89,497.62,401h-7l-5.82-42.86-21,45.45-20.7-45.45L437,401Z"/></svg>