<?xml version="1.0"?>
<svg xmlns="http://www.w3.org/2000/svg" xmlns:xlink="http://www.w3.org/1999/xlink" xmlns:svgjs="http://svgjs.com/svgjs" version="1.1" width="512" height="512" x="0" y="0" viewBox="0 0 512 512" style="enable-background:new 0 0 512 512" xml:space="preserve" class=""><g>
<polyline xmlns="http://www.w3.org/2000/svg" style="" points="309.829,253.944 309.829,253.954 256.006,512 202.184,253.954 " fill="#c8d2dd" data-original="#c8d2dd" class=""/>
<polyline xmlns="http://www.w3.org/2000/svg" style="" points="256.003,211.572 256.003,511.996 202.184,253.954 " fill="#b0bcc1" data-original="#b0bcc1" class=""/>
<circle xmlns="http://www.w3.org/2000/svg" style="" cx="256.001" cy="132.659" r="132.659" fill="#f16624" data-original="#e8181c" class=""/>
<path xmlns="http://www.w3.org/2000/svg" style="" d="M193.867,132.663c0-61.057,41.25-112.471,97.399-127.915C280.037,1.658,268.214,0,256.003,0  C182.735,0,123.34,59.396,123.34,132.663s59.396,132.662,132.663,132.662c12.212,0,24.033-1.658,35.263-4.747  C235.117,245.134,193.867,193.719,193.867,132.663z" fill="#b54d1c" data-original="#c1111a" class=""/>
<circle xmlns="http://www.w3.org/2000/svg" style="" cx="329.708" cy="111.27" r="25.076" fill="#f78753" data-original="#ff645f" class=""/>
<g xmlns="http://www.w3.org/2000/svg">
</g>
<g xmlns="http://www.w3.org/2000/svg">
</g>
<g xmlns="http://www.w3.org/2000/svg">
</g>
<g xmlns="http://www.w3.org/2000/svg">
</g>
<g xmlns="http://www.w3.org/2000/svg">
</g>
<g xmlns="http://www.w3.org/2000/svg">
</g>
<g xmlns="http://www.w3.org/2000/svg">
</g>
<g xmlns="http://www.w3.org/2000/svg">
</g>
<g xmlns="http://www.w3.org/2000/svg">
</g>
<g xmlns="http://www.w3.org/2000/svg">
</g>
<g xmlns="http://www.w3.org/2000/svg">
</g>
<g xmlns="http://www.w3.org/2000/svg">
</g>
<g xmlns="http://www.w3.org/2000/svg">
</g>
<g xmlns="http://www.w3.org/2000/svg">
</g>
<g xmlns="http://www.w3.org/2000/svg">
</g>
</g></svg>
