<?xml version="1.0" encoding="UTF-8"?><svg id="Layer_2" xmlns="http://www.w3.org/2000/svg" viewBox="0 0 762.16 466.98"><defs><style>.cls-1{fill:#fff;stroke-width:0px;}</style></defs><g id="Layer_1-2"><path class="cls-1" d="m467.39,0c53.6,0,107.19,0,160.79,0,1.43.31,2.86.81,4.31.9,21.02,1.26,40.5,7.83,58.44,18.37,50.64,29.74,76.77,100.77,59.48,159.1-13.57,45.8-53.99,88.46-116.85,86.96-16.97-.4-33.95-.06-50.93-.06h-6.41c62.5,67.68,124.01,134.27,185.92,201.31-1.46.24-1.93.38-2.4.38-37.28.01-74.57.06-111.85-.11-1.93,0-4.35-1.42-5.7-2.93-49.07-54.97-98.04-110.04-147.03-165.09-1.71-1.92-3.47-3.81-5.92-6.49-12.77,58.92-25.3,116.72-37.83,174.49h-90.86c-27.74-115.39-55.46-230.74-83.19-346.09-.36,0-.71-.01-1.07-.02-27.65,115.29-55.3,230.59-82.95,345.89h-92.96c-9.54-44.3-19-88.26-28.46-132.22-16.41-76.26-32.82-152.51-49.23-228.77C15.12,70.42,7.56,35.21,0,0,29.3,0,58.59,0,87.89,0c.04,1.31-.11,2.66.14,3.93,7.03,35.66,14.1,71.31,21.17,106.96,11.88,59.91,23.76,119.81,35.65,179.71,1.79,9.02,3.64,18.03,5.46,27.04,1.21-.86,1.51-1.7,1.72-2.56,7.43-30.81,14.87-61.61,22.26-92.43C192.1,148.44,209.9,74.22,227.7,0,261.66,0,295.62,0,329.57,0c3.13,14.25,6.19,28.52,9.41,42.75,17.47,77.19,34.97,154.37,52.47,231.55,3.73,16.44,7.47,32.88,11.46,50.45.72-2.38,1.21-3.61,1.46-4.89,4.36-21.8,8.69-43.61,13.01-65.42,14.26-71.94,28.53-143.88,42.75-215.83C462.68,25.76,464.98,12.87,467.39,0Zm43.21,196.96c.79.29,1.1.51,1.41.51,39.76-.3,79.54.07,119.27-1.23,18.68-.61,33.33-9.89,39.77-28.8,3.45-10.13,3.24-20.54,2.13-31.06-3.59-34.16-26.35-55.85-60.63-56.73-22.95-.59-45.92-.34-68.88-.46-2.3-.01-4.61,0-7.25,0-8.66,39.52-17.24,78.68-25.81,117.78Z"/></g></svg>